<svg width="609" height="561" viewBox="0 0 609 561" fill="none" xmlns="http://www.w3.org/2000/svg">
<g filter="url(#filter0_d_124_11)">
<path d="M576.279 272.672H373.625C357.808 272.672 345.021 285.485 345.021 301.256V394.12C345.021 409.891 357.808 422.704 373.625 422.704H576.279C592.076 422.704 604.883 409.892 604.883 394.12V301.256C604.883 285.48 592.075 272.672 576.279 272.672V272.672ZM424.399 378.344C407.435 378.344 393.737 364.599 393.737 347.683C393.737 330.719 407.456 317.021 424.399 317.021C441.336 317.021 455.035 330.74 455.035 347.683C455.035 364.604 441.316 378.344 424.399 378.344Z" fill="black"/>
<path d="M433.452 0L71.0654 120.541H433.452V0Z" fill="black"/>
<path d="M311.599 394.125V301.261C311.599 267.032 339.411 239.22 373.64 239.22H555.8V142.903L4 142.897V552.511H555.787V456.147H373.627C339.419 456.147 311.6 428.308 311.6 394.125L311.599 394.125ZM195.495 417.901C187.932 427.302 177.855 434.12 165.301 438.297V466.391H129.228V439.344C114.785 436.193 103.889 430.125 96.5613 421.193C88.7228 411.438 84.8009 399.704 84.8009 386.005H130.536C131.327 398.745 136.603 405.093 146.353 405.093C156.572 405.093 161.66 399.796 161.66 389.276C161.66 382.115 157.738 376.234 149.899 371.636C147.003 369.886 142.993 367.995 137.858 365.896L123.998 360.251C118.513 357.917 113.873 355.605 110.138 353.318C105.33 350.355 101.341 347.136 98.096 343.657C90.2575 335.047 86.3356 323.823 86.3356 310.078C86.3356 281.843 100.617 263.833 129.2 255.99V228.922H165.273V255.99C190.47 261.823 202.861 278.318 202.538 305.526V306.807L161.122 306.813C160.424 295.615 155.497 289.963 146.33 289.963C136.669 289.963 131.841 294.979 131.841 304.99C131.841 312.058 136.32 318.125 145.305 323.167C148.43 324.896 152.399 326.688 157.206 328.511L168.055 332.547C180.003 337.167 189.358 343.678 196.148 352.031C203.638 361.084 207.372 371.725 207.372 383.906C207.393 396.713 203.424 408.057 195.492 417.901L195.495 417.901Z" fill="black"/>
</g>
<defs>
<filter id="filter0_d_124_11" x="0" y="0" width="608.883" height="560.511" filterUnits="userSpaceOnUse" color-interpolation-filters="sRGB">
<feFlood flood-opacity="0" result="BackgroundImageFix"/>
<feColorMatrix in="SourceAlpha" type="matrix" values="0 0 0 0 0 0 0 0 0 0 0 0 0 0 0 0 0 0 127 0" result="hardAlpha"/>
<feOffset dy="4"/>
<feGaussianBlur stdDeviation="2"/>
<feComposite in2="hardAlpha" operator="out"/>
<feColorMatrix type="matrix" values="0 0 0 0 0 0 0 0 0 0 0 0 0 0 0 0 0 0 0.25 0"/>
<feBlend mode="normal" in2="BackgroundImageFix" result="effect1_dropShadow_124_11"/>
<feBlend mode="normal" in="SourceGraphic" in2="effect1_dropShadow_124_11" result="shape"/>
</filter>
</defs>
</svg>
