<svg width="522" height="709" viewBox="0 0 522 709" fill="none" xmlns="http://www.w3.org/2000/svg">
<g filter="url(#filter0_d_124_16)">
<path d="M459.001 0H179.001C172.558 0 167.334 5.224 167.334 11.6667V380.173L100.766 446.741C98.5633 448.924 97.3289 451.903 97.3341 455.002V578.903L6.95404 680.58V680.575C3.89671 684.007 3.1415 688.919 5.02177 693.112C6.90204 697.304 11.0687 700.002 15.6676 700.002H237.334C240.428 700.002 243.397 698.773 245.584 696.586L277.163 665.002H295.668C310.428 665.002 337.876 665.002 352.835 635.215C353.08 634.725 362.46 606.668 362.46 606.668H459.001C462.095 606.668 465.064 605.439 467.251 603.252C469.439 601.064 470.668 598.095 470.668 595.002V560.002H482.335C491.616 560.002 500.523 556.314 507.084 549.752C513.645 543.189 517.334 534.282 517.334 525.002V361.669C517.334 352.388 513.647 343.481 507.084 336.92C500.522 330.358 491.615 326.67 482.335 326.67H470.668V303.336C487.34 303.336 502.747 294.44 511.084 280.003C519.417 265.566 519.417 247.774 511.084 233.336C502.746 218.899 487.339 210.003 470.668 210.003V11.6696C470.668 8.57586 469.439 5.60706 467.251 3.41959C465.064 1.23212 462.095 0.0029246 459.001 0.0029246L459.001 0ZM190.668 23.3333H447.334V210H424.001V105C424.001 101.906 422.772 98.9375 420.584 96.75C418.397 94.5625 415.428 93.3333 412.334 93.3333H365.668C359.225 93.3333 354.001 98.5573 354.001 105V210H190.668V23.3333ZM377.334 140V116.667H400.668V140H377.334ZM400.668 163.333V210H377.334V163.333H400.668ZM167.334 413.16V443.332H137.162L167.334 413.16ZM331.548 625.493C323.673 640.499 311.704 641.665 295.673 641.665H272.34C269.246 641.665 266.277 642.895 264.09 645.082L232.511 676.666H41.6576L117.726 591.093C119.627 588.952 120.679 586.192 120.679 583.332V466.666H272.345C280.684 466.666 288.387 471.113 292.553 478.332C296.72 485.551 296.72 494.447 292.553 501.666C288.387 508.884 280.684 513.332 272.345 513.332H179.012C172.569 513.332 167.345 518.556 167.345 524.999V594.999C167.345 598.093 168.575 601.061 170.762 603.249C172.95 605.436 175.918 606.666 179.012 606.666H337.825L331.548 625.493ZM237.34 443.333V396.667H354.006V443.333H237.34ZM447.34 583.333H190.673V536.667H272.34C284.715 536.667 296.585 531.75 305.34 523C314.09 514.245 319.006 502.375 319.006 490C318.959 481.781 316.72 473.729 312.522 466.667H365.673C368.766 466.667 371.735 465.438 373.923 463.25C376.11 461.063 377.339 458.094 377.339 455V385C377.339 381.906 376.11 378.937 373.923 376.75C371.735 374.563 368.766 373.333 365.673 373.333H225.673C219.23 373.333 214.006 378.557 214.006 385V443.333H190.673V233.333H447.339V326.667C434.594 326.609 422.386 331.792 413.569 341C404.756 350.203 400.11 362.625 400.72 375.36C401.329 388.089 407.142 400.011 416.798 408.333C406.564 417.083 400.673 429.869 400.673 443.333C400.673 456.797 406.564 469.584 416.798 478.333C407.142 486.656 401.329 498.579 400.72 511.307C400.11 524.041 404.756 536.463 413.569 545.667C422.386 554.875 434.595 560.057 447.339 560L447.34 583.333ZM494.006 525C494.006 528.094 492.777 531.063 490.59 533.25C488.402 535.437 485.433 536.667 482.34 536.667H447.34C439.001 536.667 431.298 532.219 427.132 525C422.965 517.781 422.965 508.885 427.132 501.667C431.298 494.448 439.001 490 447.34 490H494.006V525ZM494.006 466.667H447.34C439.001 466.667 431.298 462.219 427.132 455C422.965 447.781 422.965 438.885 427.132 431.667C431.298 424.448 439.001 420 447.34 420H494.006V466.667ZM482.34 350C485.433 350 488.402 351.229 490.59 353.417C492.777 355.604 494.006 358.573 494.006 361.667V396.667H447.34C439.001 396.667 431.298 392.219 427.132 385C422.965 377.781 422.965 368.885 427.132 361.667C431.298 354.448 439.001 350 447.34 350H482.34ZM494.006 256.667C494.006 262.854 491.548 268.792 487.173 273.167C482.798 277.542 476.86 280 470.673 280V233.333C476.86 233.333 482.798 235.792 487.173 240.167C491.548 244.542 494.006 250.479 494.006 256.667Z" fill="black"/>
<path d="M365.668 256.667H225.668C219.225 256.667 214.001 261.891 214.001 268.333V338.333C214.001 341.427 215.23 344.396 217.418 346.583C219.605 348.771 222.574 350 225.668 350H365.668C368.761 350 371.73 348.771 373.918 346.583C376.105 344.396 377.334 341.427 377.334 338.333V268.333C377.334 265.24 376.105 262.271 373.918 260.083C371.73 257.896 368.761 256.667 365.668 256.667ZM354.001 326.667H237.334V280H354.001V326.667Z" fill="black"/>
<path d="M400.668 280H424.001V303.333H400.668V280Z" fill="black"/>
<path d="M214.001 46.6667H424.001V70.0001H214.001V46.6667Z" fill="black"/>
<path d="M214.001 93.3333H330.668V116.667H214.001V93.3333Z" fill="black"/>
<path d="M214.001 140H330.668V163.333H214.001V140Z" fill="black"/>
</g>
<defs>
<filter id="filter0_d_124_16" x="0" y="0" width="521.334" height="708.002" filterUnits="userSpaceOnUse" color-interpolation-filters="sRGB">
<feFlood flood-opacity="0" result="BackgroundImageFix"/>
<feColorMatrix in="SourceAlpha" type="matrix" values="0 0 0 0 0 0 0 0 0 0 0 0 0 0 0 0 0 0 127 0" result="hardAlpha"/>
<feOffset dy="4"/>
<feGaussianBlur stdDeviation="2"/>
<feComposite in2="hardAlpha" operator="out"/>
<feColorMatrix type="matrix" values="0 0 0 0 0 0 0 0 0 0 0 0 0 0 0 0 0 0 0.25 0"/>
<feBlend mode="normal" in2="BackgroundImageFix" result="effect1_dropShadow_124_16"/>
<feBlend mode="normal" in="SourceGraphic" in2="effect1_dropShadow_124_16" result="shape"/>
</filter>
</defs>
</svg>
