<svg width="756" height="674" viewBox="0 0 756 674" fill="none" xmlns="http://www.w3.org/2000/svg">
<g filter="url(#filter0_d_124_24)">
<path d="M739.333 642.507H721.833V328.76C714.615 333.036 706.724 336.062 698.5 337.713V642.513H663.5V473.34C663.5 442.08 646.823 413.194 619.751 397.564C592.677 381.933 559.324 381.933 532.251 397.564C505.177 413.194 488.501 442.08 488.501 473.34V642.513H56.8347V337.713C48.6107 336.062 40.7201 333.036 33.5014 328.765V642.512H16.0014C9.55872 642.512 4.33472 647.736 4.33472 654.179C4.33472 660.621 9.55872 665.845 16.0014 665.845H739.335C745.777 665.845 751.001 660.621 751.001 654.179C751.001 647.736 745.777 642.512 739.335 642.512L739.333 642.507ZM640.167 642.507H511.833V473.333C511.833 450.407 524.063 429.224 543.916 417.765C563.771 406.302 588.228 406.302 608.083 417.765C627.937 429.224 640.165 450.405 640.165 473.333L640.167 642.507Z" fill="black"/>
<path d="M34.4947 84.6147L21.8749 231.681C21.8437 232.265 21.8541 232.848 21.9062 233.426C21.8906 233.676 21.8333 233.916 21.8333 234.171V269.171C22.2916 281.968 27.8021 294.062 37.1506 302.807C46.5047 311.552 58.9426 316.239 71.7386 315.838C86.2853 315.937 100.187 309.854 109.984 299.104C119.838 309.77 133.697 315.838 148.224 315.838C162.745 315.838 176.609 309.77 186.464 299.104C196.318 309.77 210.183 315.838 224.704 315.838C239.231 315.838 253.089 309.77 262.949 299.104C272.798 309.77 286.663 315.838 301.189 315.838C315.711 315.838 329.575 309.77 339.429 299.104C349.283 309.77 363.143 315.838 377.669 315.838C392.196 315.838 406.055 309.77 415.909 299.104C425.763 309.77 439.628 315.838 454.149 315.838C468.676 315.838 482.54 309.77 492.389 299.104C502.249 309.77 516.108 315.838 530.635 315.838C545.156 315.838 559.02 309.77 568.875 299.104C578.729 309.77 592.593 315.838 607.115 315.838C621.641 315.838 635.5 309.77 645.355 299.104C655.152 309.854 669.052 315.937 683.6 315.838C696.397 316.239 708.835 311.552 718.188 302.807C727.537 294.062 733.048 281.968 733.505 269.171V234.171C733.505 233.916 733.448 233.676 733.432 233.426C733.484 232.848 733.495 232.265 733.464 231.681L720.844 84.6147C731.302 76.7085 737.943 64.7547 739.147 51.6974C740.345 38.6401 735.985 25.6867 727.141 16.0041C718.298 6.3218 705.787 0.816066 692.672 0.832066H62.672C49.5575 0.816441 37.0467 6.32166 28.2027 16.0041C19.3589 25.6863 14.9996 38.6401 16.1975 51.6974C17.4006 64.7547 24.0412 76.7081 34.5001 84.6147H34.4947ZM98.3173 269.161C97.8538 275.766 94.8017 281.922 89.8225 286.292C84.8485 290.662 78.3485 292.891 71.7399 292.495C65.1305 292.891 58.6357 290.662 53.6572 286.292C48.6832 281.922 45.6312 275.766 45.1676 269.161V244.333H98.3182L98.3173 269.161ZM99.2757 221H46.2077L57.1243 93.8027C58.9629 94.0319 60.8118 94.1517 62.6659 94.1621H110.155L99.2757 221ZM174.797 269.161C174.333 275.766 171.281 281.922 166.307 286.292C161.328 290.662 154.833 292.891 148.219 292.495C141.615 292.891 135.115 290.657 130.141 286.292C125.167 281.922 122.115 275.766 121.651 269.161V244.333H174.796L174.797 269.161ZM175.755 221H122.693L133.573 94.1614H186.636L175.755 221ZM251.282 269.161C250.813 275.766 247.766 281.922 242.787 286.292C237.813 290.662 231.313 292.891 224.705 292.495C218.095 292.891 211.595 290.662 206.622 286.292C201.648 281.922 198.596 275.766 198.132 269.161V244.333H251.283L251.282 269.161ZM252.24 221H199.172L210.058 94.1614H263.12L252.24 221ZM327.762 269.161C327.298 275.766 324.246 281.922 319.267 286.292C314.293 290.662 307.793 292.891 301.184 292.495C294.575 292.891 288.08 290.657 283.106 286.292C278.126 281.922 275.08 275.766 274.616 269.161V244.333H327.761L327.762 269.161ZM327.762 221H275.658L286.538 94.1614H327.757L327.762 221ZM404.24 269.161C403.11 277.838 397.813 285.416 390.052 289.464C382.292 293.506 373.042 293.506 365.282 289.464C357.521 285.417 352.224 277.839 351.094 269.161V244.333H404.244L404.24 269.161ZM404.24 221H351.095V94.1614H404.246L404.24 221ZM480.719 269.161C479.589 277.838 474.292 285.416 466.531 289.464C458.771 293.506 449.526 293.506 441.766 289.464C434.005 285.417 428.708 277.839 427.572 269.161V244.333H480.718L480.719 269.161ZM427.574 221V94.1614H468.792L479.678 221H427.574ZM492.214 94.1614H545.276L556.162 221H503.099L492.214 94.1614ZM557.203 269.161C556.073 277.838 550.776 285.416 543.015 289.464C535.255 293.506 526.004 293.506 518.244 289.464C510.484 285.417 505.187 277.839 504.051 269.161V244.333H557.202L557.203 269.161ZM568.693 94.1614H621.755L632.641 221H579.578L568.693 94.1614ZM633.682 269.161C632.552 277.838 627.255 285.416 619.494 289.464C611.734 293.506 602.489 293.506 594.729 289.464C586.968 285.417 581.666 277.839 580.535 269.161V244.333H633.681L633.682 269.161ZM645.177 94.1614H692.666C694.52 94.151 696.369 94.0312 698.208 93.802L709.124 221.005H656.062L645.177 94.1614ZM710.166 269.161C709.036 277.838 703.739 285.416 695.973 289.464C688.212 293.506 678.967 293.506 671.207 289.464C663.447 285.417 658.15 277.839 657.014 269.161V244.333H710.165L710.166 269.161ZM62.6727 24.1614H692.673C701.011 24.1614 708.714 28.6093 712.881 35.8281C717.047 43.0469 717.047 51.9427 712.881 59.1614C708.714 66.3801 701.011 70.8281 692.673 70.8281H62.6727C54.3342 70.8281 46.6314 66.3802 42.4647 59.1614C38.2981 51.9426 38.2981 43.0467 42.4647 35.8281C46.6314 28.6094 54.3345 24.1614 62.6727 24.1614Z" fill="black"/>
<path d="M115.16 385.84C108.973 385.845 103.045 388.309 98.6707 392.684C94.2959 397.059 91.8321 402.986 91.8269 409.173V572.506C91.8321 578.694 94.2957 584.621 98.6707 588.996C103.046 593.371 108.973 595.834 115.16 595.84H418.493C424.681 595.834 430.608 593.371 434.983 588.996C439.357 584.621 441.821 578.694 441.826 572.506V409.173C441.821 402.986 439.358 397.059 434.983 392.684C430.608 388.309 424.681 385.845 418.493 385.84H115.16ZM115.16 572.507V409.173H418.493L418.509 572.507H115.16Z" fill="black"/>
<path d="M605.16 490.827C598.717 490.827 593.493 496.051 593.493 502.493V525.827C593.493 532.269 598.717 537.493 605.16 537.493C611.603 537.493 616.827 532.269 616.827 525.827V502.493C616.827 496.051 611.603 490.827 605.16 490.827Z" fill="black"/>
</g>
<defs>
<filter id="filter0_d_124_24" x="0.334717" y="0.832031" width="754.667" height="673.013" filterUnits="userSpaceOnUse" color-interpolation-filters="sRGB">
<feFlood flood-opacity="0" result="BackgroundImageFix"/>
<feColorMatrix in="SourceAlpha" type="matrix" values="0 0 0 0 0 0 0 0 0 0 0 0 0 0 0 0 0 0 127 0" result="hardAlpha"/>
<feOffset dy="4"/>
<feGaussianBlur stdDeviation="2"/>
<feComposite in2="hardAlpha" operator="out"/>
<feColorMatrix type="matrix" values="0 0 0 0 0 0 0 0 0 0 0 0 0 0 0 0 0 0 0.25 0"/>
<feBlend mode="normal" in2="BackgroundImageFix" result="effect1_dropShadow_124_24"/>
<feBlend mode="normal" in="SourceGraphic" in2="effect1_dropShadow_124_24" result="shape"/>
</filter>
</defs>
</svg>
