<svg color="white" width="518" height="567" viewBox="0 0 518 567" fill="none" xmlns="http://www.w3.org/2000/svg">
<g filter="url(#filter0_d_124_3)">
<path d="M363.267 208.907C367.1 165.043 353.626 122.308 325.33 88.5841C297.032 54.8601 257.283 34.1627 213.423 30.3294C169.516 26.4804 126.824 39.97 93.1002 68.2614C23.4695 126.693 14.3509 230.875 72.7722 300.501C101.079 334.236 140.824 354.923 184.69 358.756C189.591 359.188 194.471 359.397 199.34 359.397C237.986 359.397 275.054 345.959 305.012 320.818C338.736 292.515 359.428 252.771 363.267 208.906V208.907ZM289.007 301.745C260.376 325.772 224.152 337.215 186.846 333.959C149.611 330.698 115.862 313.136 91.8349 284.505C42.2309 225.385 49.9709 136.932 109.086 87.332C135.263 65.3734 167.174 54.6547 198.935 54.6547C238.899 54.6547 278.612 71.644 306.258 104.592C330.284 133.232 341.727 169.509 338.471 206.753C335.21 243.977 317.648 277.727 289.007 301.748V301.745Z" fill="black"/>
<path d="M503 483.187L407.011 368.791C404.886 366.259 401.849 364.676 398.558 364.395C395.214 364.098 391.995 365.14 389.474 367.259L373.578 380.598L334.469 333.983C406.928 263.681 413.996 148.01 348.1 69.4766C279.141 -12.7207 156.153 -23.4661 73.9797 45.4819C-8.21365 114.441 -18.9737 237.429 49.985 319.602C88.4223 365.405 143.625 389.023 199.198 389.023C239.974 389.023 280.865 376.133 315.553 350.138L354.522 396.57L338.658 409.903C333.393 414.325 332.7 422.174 337.117 427.434L433.106 541.841C442.116 552.575 455.059 558.111 468.101 558.111C478.455 558.111 488.855 554.616 497.387 547.465C506.731 539.632 512.455 528.627 513.518 516.487C514.57 504.346 510.857 492.508 503.013 483.175L503 483.187ZM69.0668 303.627C8.92142 231.944 18.3014 124.707 89.9841 64.5732C121.719 37.9426 160.421 24.9479 198.921 24.9479C247.391 24.9479 295.541 45.5413 329.047 85.4839C389.192 157.167 379.812 264.404 308.129 324.537C236.436 384.693 129.196 375.297 69.0628 303.625L69.0668 303.627ZM481.387 528.4C472.626 535.759 459.512 534.603 452.168 525.843L364.179 420.983L395.955 394.316L483.939 499.18C487.506 503.43 489.199 508.805 488.71 514.32C488.23 519.846 485.637 524.851 481.387 528.399L481.387 528.4Z" fill="black"/>
<path d="M145.667 235.44C152.537 235.44 158.109 229.867 158.109 222.997V181.519C158.109 174.649 152.537 169.076 145.667 169.076C138.797 169.071 133.224 174.649 133.224 181.519V222.997C133.224 229.867 138.797 235.44 145.667 235.44Z" fill="black"/>
<path d="M195.44 235.44C202.31 235.44 207.883 229.867 207.883 222.997V148.331C207.883 141.461 202.31 135.888 195.44 135.888C188.57 135.888 182.997 141.461 182.997 148.331V222.997C182.997 229.867 188.57 235.44 195.44 235.44Z" fill="black"/>
<path d="M245.227 111C238.357 111 232.784 116.573 232.784 123.443V223C232.784 229.87 238.357 235.443 245.227 235.443C252.097 235.443 257.67 229.87 257.67 223V123.443C257.67 116.573 252.097 111 245.227 111Z" fill="black"/>
<path d="M245.227 252.04H145.669C138.8 252.04 133.227 257.613 133.227 264.483C133.227 271.352 138.8 276.925 145.669 276.925H245.227C252.097 276.925 257.669 271.352 257.669 264.483C257.669 257.618 252.097 252.04 245.227 252.04Z" fill="black"/>
</g>
<defs>
<filter id="filter0_d_124_3" x="0.552734" y="0.0527344" width="517.14" height="566.059" filterUnits="userSpaceOnUse" color-interpolation-filters="sRGB">
<feFlood flood-opacity="0" result="BackgroundImageFix"/>
<feColorMatrix in="SourceAlpha" type="matrix" values="0 0 0 0 0 0 0 0 0 0 0 0 0 0 0 0 0 0 127 0" result="hardAlpha"/>
<feOffset dy="4"/>
<feGaussianBlur stdDeviation="2"/>
<feComposite in2="hardAlpha" operator="out"/>
<feColorMatrix type="matrix" values="0 0 0 0 0 0 0 0 0 0 0 0 0 0 0 0 0 0 0.25 0"/>
<feBlend mode="normal" in2="BackgroundImageFix" result="effect1_dropShadow_124_3"/>
<feBlend mode="normal" in="SourceGraphic" in2="effect1_dropShadow_124_3" result="shape"/>
</filter>
</defs>
</svg>
